<svg width="60" height="60" viewBox="0 0 60 60" fill="none" xmlns="http://www.w3.org/2000/svg">
<g clip-path="url(#clip0_3_254)">
<path d="M27.975 45H32.475V32.55H45V28.05H32.475V15H27.975V28.05H15V32.55H27.975V45ZM30 60C25.9 60 22.025 59.2125 18.375 57.6375C14.725 56.0625 11.5375 53.9125 8.8125 51.1875C6.0875 48.4625 3.9375 45.275 2.3625 41.625C0.7875 37.975 0 34.075 0 29.925C0 25.825 0.7875 21.95 2.3625 18.3C3.9375 14.65 6.0875 11.475 8.8125 8.775C11.5375 6.075 14.725 3.9375 18.375 2.3625C22.025 0.7875 25.925 0 30.075 0C34.175 0 38.05 0.7875 41.7 2.3625C45.35 3.9375 48.525 6.075 51.225 8.775C53.925 11.475 56.0625 14.65 57.6375 18.3C59.2125 21.95 60 25.85 60 30C60 34.1 59.2125 37.975 57.6375 41.625C56.0625 45.275 53.925 48.4625 51.225 51.1875C48.525 53.9125 45.35 56.0625 41.7 57.6375C38.05 59.2125 34.15 60 30 60ZM30.075 55.5C37.125 55.5 43.125 53.0125 48.075 48.0375C53.025 43.0625 55.5 37.025 55.5 29.925C55.5 22.875 53.025 16.875 48.075 11.925C43.125 6.975 37.1 4.5 30 4.5C22.95 4.5 16.9375 6.975 11.9625 11.925C6.9875 16.875 4.5 22.9 4.5 30C4.5 37.05 6.9875 43.0625 11.9625 48.0375C16.9375 53.0125 22.975 55.5 30.075 55.5Z" fill="black"/>
</g>
<defs>
<clipPath id="clip0_3_254">
<rect width="60" height="60" fill="white"/>
</clipPath>
</defs>
</svg>